		<svg   height="120px" width="120px"  xmlns="http://www.w3.org/2000/svg" viewBox="0 0 128 32" fill="none"><g clip-path="url(#clip0_14025_29217)"><path d="M0 16C0 8.45753 0 4.68629 2.34315 2.34315C4.68629 0 8.45753 0 16 0C23.5425 0 27.3137 0 29.6569 2.34315C32 4.68629 32 8.45753 32 16C32 23.5425 32 27.3137 29.6569 29.6569C27.3137 32 23.5425 32 16 32C8.45753 32 4.68629 32 2.34315 29.6569C0 27.3137 0 23.5425 0 16Z" fill="#0066FF"></path><g filter="url(#filter0_d_14025_29217)"><path d="M16.1185 7.62912L8.05595 15.5694C8.02016 15.6047 8 15.6528 8 15.703V22.0517C8 22.2181 8.20053 22.302 8.31909 22.1853L16.1185 14.5041C16.1914 14.4322 16.3086 14.4322 16.3816 14.5041L24.181 22.1853C24.2995 22.302 24.5001 22.2181 24.5001 22.0517V15.703C24.5001 15.6528 24.4799 15.6047 24.4441 15.5694L16.3816 7.62912C16.3086 7.55722 16.1914 7.55722 16.1185 7.62912Z" stroke="white" stroke-width="2.00001"></path></g><path d="M43.7247 24.4977C42.608 24.4977 41.6087 24.2114 40.7265 23.6387C39.8443 23.066 39.1472 22.2347 38.6352 21.1447C38.1232 20.0548 37.8672 18.7308 37.8672 17.1728C37.8672 15.5964 38.1263 14.2662 38.6445 13.1824C39.1688 12.0925 39.8752 11.2704 40.7635 10.7162C41.6519 10.1558 42.642 9.87566 43.7339 9.87566C44.5667 9.87566 45.2515 10.0173 45.7882 10.3006C46.3249 10.5776 46.7505 10.9132 47.0652 11.3074C47.3798 11.6953 47.6235 12.0617 47.7962 12.4065H47.935V5.33105H51.294V24.2483H47.9998V22.013H47.7962C47.6235 22.3579 47.3736 22.7242 47.0467 23.1122C46.7197 23.494 46.2879 23.8203 45.7512 24.0913C45.2145 24.3622 44.539 24.4977 43.7247 24.4977ZM44.6593 21.7543C45.3687 21.7543 45.9732 21.5635 46.473 21.1817C46.9726 20.7937 47.352 20.2549 47.6112 19.5652C47.8702 18.8755 47.9998 18.0719 47.9998 17.1544C47.9998 16.2368 47.8702 15.4394 47.6112 14.762C47.3582 14.0846 46.9819 13.5581 46.4822 13.1824C45.9887 12.8069 45.381 12.619 44.6593 12.619C43.9128 12.619 43.2897 12.813 42.7901 13.2009C42.2903 13.5889 41.914 14.1246 41.6611 14.8081C41.4082 15.4917 41.2817 16.2738 41.2817 17.1544C41.2817 18.0411 41.4082 18.8324 41.6611 19.5283C41.9202 20.2179 42.2996 20.7629 42.7993 21.1632C43.3051 21.5573 43.9252 21.7543 44.6593 21.7543ZM63.0105 18.2812V10.0604H66.3606V24.2483H63.1126V21.7267H62.9644C62.6436 22.521 62.1164 23.1707 61.3819 23.6757C60.6539 24.1806 59.7566 24.4331 58.6893 24.4331C57.7577 24.4331 56.9342 24.2268 56.2187 23.8142C55.5091 23.3954 54.9538 22.7889 54.5531 21.9945C54.1519 21.194 53.9516 20.2272 53.9516 19.0941V10.0604H57.3012V18.5769C57.3012 19.4759 57.5482 20.1903 58.0416 20.7198C58.5351 21.2494 59.1827 21.5142 59.9846 21.5142C60.4786 21.5142 60.9563 21.3941 61.4194 21.154C61.8819 20.9138 62.2614 20.5566 62.5572 20.0825C62.8596 19.6021 63.0105 19.0018 63.0105 18.2812ZM75.0743 29.8644C73.8713 29.8644 72.8382 29.7012 71.9744 29.3748C71.1107 29.0546 70.417 28.6236 69.8925 28.0817C69.3681 27.5398 69.0039 26.9394 68.8003 26.2805L71.817 25.5507C71.9527 25.8279 72.1503 26.1019 72.4093 26.3729C72.6682 26.6499 73.0173 26.8778 73.4549 27.0564C73.8995 27.2411 74.4576 27.3335 75.1302 27.3335C76.0802 27.3335 76.8663 27.1025 77.4895 26.6407C78.1127 26.185 78.4243 25.4337 78.4243 24.3869V21.699H78.2577C78.085 22.0438 77.8321 22.3979 77.4987 22.7612C77.1719 23.1245 76.7371 23.4293 76.1942 23.6757C75.6573 23.922 74.982 24.0451 74.1677 24.0451C73.0754 24.0451 72.0857 23.7896 71.1971 23.2784C70.3149 22.7612 69.6119 21.9914 69.0875 20.9692C68.569 19.9408 68.3101 18.6538 68.3101 17.1082C68.3101 15.5502 68.569 14.2355 69.0875 13.164C69.6119 12.0863 70.3181 11.2704 71.2063 10.7162C72.095 10.1558 73.0852 9.87566 74.1769 9.87566C75.0097 9.87566 75.6942 10.0173 76.2311 10.3006C76.774 10.5776 77.2056 10.9132 77.5264 11.3074C77.8472 11.6953 78.091 12.0617 78.2577 12.4065H78.4428V10.0604H81.7462V24.4792C81.7462 25.6924 81.4563 26.6961 80.8765 27.4905C80.2967 28.2849 79.5035 28.8792 78.4981 29.2732C77.4927 29.6674 76.3516 29.8644 75.0743 29.8644ZM75.1019 21.4218C75.8115 21.4218 76.4162 21.2494 76.9157 20.9045C77.4157 20.5597 77.7951 20.064 78.0541 19.4174C78.313 18.7708 78.4428 17.9949 78.4428 17.0897C78.4428 16.1968 78.313 15.4148 78.0541 14.7435C77.8011 14.0723 77.4249 13.552 76.9249 13.1824C76.4314 12.8069 75.824 12.619 75.1019 12.619C74.3555 12.619 73.7328 12.813 73.2328 13.2009C72.7334 13.5889 72.3572 14.1216 72.1042 14.7989C71.8512 15.4701 71.7247 16.2337 71.7247 17.0897C71.7247 17.9579 71.8512 18.7185 72.1042 19.3712C72.3631 20.0178 72.7426 20.5228 73.2421 20.8861C73.748 21.2432 74.368 21.4218 75.1019 21.4218ZM90.4484 29.8644C89.2454 29.8644 88.2123 29.7012 87.3486 29.3748C86.4849 29.0546 85.7911 28.6236 85.2667 28.0817C84.7423 27.5398 84.378 26.9394 84.1744 26.2805L87.1912 25.5507C87.3269 25.8279 87.5245 26.1019 87.7834 26.3729C88.0424 26.6499 88.3915 26.8778 88.829 27.0564C89.2736 27.2411 89.8317 27.3335 90.5043 27.3335C91.4543 27.3335 92.2404 27.1025 92.8636 26.6407C93.4869 26.185 93.7985 25.4337 93.7985 24.3869V21.699H93.6318C93.4592 22.0438 93.2062 22.3979 92.8729 22.7612C92.5461 23.1245 92.1112 23.4293 91.5683 23.6757C91.0314 23.922 90.3561 24.0451 89.5418 24.0451C88.4495 24.0451 87.4599 23.7896 86.5712 23.2784C85.689 22.7612 84.986 21.9914 84.4616 20.9692C83.9432 19.9408 83.6842 18.6538 83.6842 17.1082C83.6842 15.5502 83.9432 14.2355 84.4616 13.164C84.986 12.0863 85.6923 11.2704 86.5804 10.7162C87.4691 10.1558 88.4593 9.87566 89.551 9.87566C90.3838 9.87566 91.0684 10.0173 91.6053 10.3006C92.1481 10.5776 92.5797 10.9132 92.9006 11.3074C93.2214 11.6953 93.4651 12.0617 93.6318 12.4065H93.8169V10.0604H97.1203V24.4792C97.1203 25.6924 96.8304 26.6961 96.2506 27.4905C95.6708 28.2849 94.8777 28.8792 93.8723 29.2732C92.8669 29.6674 91.7258 29.8644 90.4484 29.8644ZM90.4761 21.4218C91.1856 21.4218 91.7904 21.2494 92.2898 20.9045C92.7898 20.5597 93.1693 20.064 93.4282 19.4174C93.6872 18.7708 93.8169 17.9949 93.8169 17.0897C93.8169 16.1968 93.6872 15.4148 93.4282 14.7435C93.1752 14.0723 92.799 13.552 92.2991 13.1824C91.8056 12.8069 91.1981 12.619 90.4761 12.619C89.7296 12.619 89.107 12.813 88.607 13.2009C88.1075 13.5889 87.7313 14.1216 87.4783 14.7989C87.2254 15.4701 87.0989 16.2337 87.0989 17.0897C87.0989 17.9579 87.2254 18.7185 87.4783 19.3712C87.7373 20.0178 88.1168 20.5228 88.6162 20.8861C89.1222 21.2432 89.7421 21.4218 90.4761 21.4218ZM108.7 18.2812V10.0604H112.05V24.2483H108.802V21.7267H108.654C108.333 22.521 107.806 23.1707 107.072 23.6757C106.344 24.1806 105.446 24.4331 104.379 24.4331C103.447 24.4331 102.624 24.2268 101.908 23.8142C101.199 23.3954 100.644 22.7889 100.243 21.9945C99.8417 21.194 99.6414 20.2272 99.6414 19.0941V10.0604H102.991V18.5769C102.991 19.4759 103.238 20.1903 103.731 20.7198C104.225 21.2494 104.873 21.5142 105.675 21.5142C106.168 21.5142 106.646 21.3941 107.109 21.154C107.572 20.9138 107.951 20.5566 108.247 20.0825C108.549 19.6021 108.7 19.0018 108.7 18.2812ZM114.583 29.5688V10.0604H117.877V12.4065H118.071C118.244 12.0617 118.488 11.6953 118.803 11.3074C119.117 10.9132 119.543 10.5776 120.079 10.3006C120.616 10.0173 121.301 9.87566 122.134 9.87566C123.232 9.87566 124.222 10.1558 125.104 10.7162C125.992 11.2704 126.696 12.0925 127.214 13.1824C127.738 14.2662 128.001 15.5964 128.001 17.1728C128.001 18.7308 127.744 20.0548 127.232 21.1447C126.72 22.2347 126.023 23.066 125.141 23.6387C124.259 24.2114 123.26 24.4977 122.143 24.4977C121.329 24.4977 120.653 24.3622 120.116 24.0913C119.58 23.8203 119.148 23.494 118.821 23.1122C118.5 22.7242 118.251 22.3579 118.071 22.013H117.933V29.5688H114.583ZM117.868 17.1544C117.868 18.0719 117.998 18.8755 118.257 19.5652C118.522 20.2549 118.901 20.7937 119.395 21.1817C119.894 21.5635 120.499 21.7543 121.209 21.7543C121.949 21.7543 122.569 21.5573 123.069 21.1632C123.568 20.7629 123.944 20.2179 124.197 19.5283C124.457 18.8324 124.586 18.0411 124.586 17.1544C124.586 16.2738 124.459 15.4917 124.206 14.8081C123.953 14.1246 123.577 13.5889 123.078 13.2009C122.578 12.813 121.955 12.619 121.209 12.619C120.493 12.619 119.885 12.8069 119.386 13.1824C118.886 13.5581 118.506 14.0846 118.247 14.762C117.994 15.4394 117.868 16.2368 117.868 17.1544Z" fill="var(--icon-fill)"></path></g><defs><filter id="filter0_d_14025_29217" x="5" y="6.5752" width="22.5" height="20.6665" filterUnits="userSpaceOnUse" color-interpolation-filters="sRGB"><feFlood flood-opacity="0" result="BackgroundImageFix"></feFlood><feColorMatrix in="SourceAlpha" type="matrix" values="0 0 0 0 0 0 0 0 0 0 0 0 0 0 0 0 0 0 127 0" result="hardAlpha"></feColorMatrix><feOffset dy="2.00001"></feOffset><feGaussianBlur stdDeviation="1"></feGaussianBlur><feColorMatrix type="matrix" values="0 0 0 0 0 0 0 0 0 0 0 0 0 0 0 0 0 0 0.25 0"></feColorMatrix><feBlend mode="normal" in2="BackgroundImageFix" result="effect1_dropShadow_14025_29217"></feBlend><feBlend mode="normal" in="SourceGraphic" in2="effect1_dropShadow_14025_29217" result="shape"></feBlend></filter><clipPath id="clip0_14025_29217"><rect width="128" height="32" fill="white"></rect></clipPath></defs></svg>
